<svg width="20" height="20" viewBox="0 0 20 20" fill="none" xmlns="http://www.w3.org/2000/svg">
<path d="M15.9751 3.09399C16.2189 2.85649 16.6007 2.85661 16.8364 3.09399C17.0804 3.33192 17.0804 3.72619 16.8364 3.96411L15.3569 5.45728C16.536 6.54023 17.5366 8.0004 18.2847 9.7561C18.3497 9.91197 18.3497 10.0928 18.2847 10.2405C16.5446 14.3262 13.4461 16.7708 9.99854 16.7708H9.99072C8.42141 16.7708 6.91669 16.2543 5.59131 15.3108L4.01416 16.9026C3.89232 17.0254 3.73779 17.0822 3.5835 17.0823C3.42904 17.0823 3.26569 17.0256 3.15186 16.9026C2.94865 16.6976 2.91619 16.369 3.07861 16.1311L3.10303 16.0979L15.1294 3.96411C15.1456 3.94777 15.1623 3.93163 15.1704 3.91528C15.1867 3.89887 15.2023 3.88189 15.2104 3.86548L15.9751 3.09399ZM10.0005 3.23755C11.1632 3.23755 12.2937 3.51619 13.3345 4.04126L10.6187 6.78149C10.4235 6.74868 10.2119 6.72388 10.0005 6.72388C8.2038 6.72404 6.74879 8.19231 6.74854 10.0051C6.74854 10.2184 6.77265 10.4322 6.80518 10.6292L3.79639 13.6643C2.98341 12.7127 2.27631 11.5641 1.71533 10.2434C1.65029 10.0957 1.65029 9.9149 1.71533 9.75903C3.45543 5.67359 6.55332 3.23755 9.99268 3.23755H10.0005ZM11.7954 9.05103C11.9417 9.32988 12.0229 9.65777 12.0229 10.0022C12.0229 11.1262 11.1125 12.0452 9.99854 12.0452C9.65705 12.0452 9.33162 11.9633 9.05518 11.8157L8.16943 12.7102C8.68973 13.0628 9.32386 13.2756 9.99854 13.2756C11.7874 13.2756 13.2427 11.8071 13.2427 10.0022C13.2426 9.32139 13.0317 8.68148 12.6821 8.15649L11.7954 9.05103Z" fill="#FDFDFD"/>
</svg>
