<svg width="19" height="15" viewBox="0 0 19 15" fill="none" xmlns="http://www.w3.org/2000/svg">
<path d="M0 7.5C0.783333 3.23333 4.52167 0 9.015 0C13.5083 0 17.2467 3.23333 18.0308 7.5C17.2475 11.7667 13.5083 15 9.015 15C4.52167 15 0.783333 11.7667 0 7.5ZM9.015 11.6667C10.1201 11.6667 11.1799 11.2277 11.9613 10.4463C12.7427 9.66488 13.1817 8.60507 13.1817 7.5C13.1817 6.39493 12.7427 5.33512 11.9613 4.55372C11.1799 3.77232 10.1201 3.33333 9.015 3.33333C7.90993 3.33333 6.85012 3.77232 6.06872 4.55372C5.28732 5.33512 4.84833 6.39493 4.84833 7.5C4.84833 8.60507 5.28732 9.66488 6.06872 10.4463C6.85012 11.2277 7.90993 11.6667 9.015 11.6667ZM9.015 10C8.35196 10 7.71607 9.73661 7.24723 9.26777C6.77839 8.79893 6.515 8.16304 6.515 7.5C6.515 6.83696 6.77839 6.20107 7.24723 5.73223C7.71607 5.26339 8.35196 5 9.015 5C9.67804 5 10.3139 5.26339 10.7828 5.73223C11.2516 6.20107 11.515 6.83696 11.515 7.5C11.515 8.16304 11.2516 8.79893 10.7828 9.26777C10.3139 9.73661 9.67804 10 9.015 10Z" fill="white"/>
</svg>
