<svg width="20" height="20" viewBox="0 0 20 20" fill="none" xmlns="http://www.w3.org/2000/svg">
<path d="M9.98682 1.66663C12.5441 1.66663 14.6021 3.67935 14.6021 6.1637V7.44104C16.0372 7.88901 17.0833 9.18817 17.0835 10.7399V14.8541C17.0835 16.7753 15.4905 18.3335 13.5269 18.3336H6.47412C4.50959 18.3336 2.9165 16.7754 2.9165 14.8541V10.7399C2.9167 9.18817 3.96363 7.88901 5.39795 7.44104V6.1637C5.40642 3.67945 7.46355 1.6668 9.98682 1.66663ZM9.99561 11.1539C9.58926 11.1539 9.25946 11.4763 9.25928 11.8737V13.7125C9.25934 14.1182 9.58919 14.441 9.99561 14.441C10.4105 14.441 10.7407 14.1182 10.7407 13.7125V11.8737C10.7405 11.4763 10.4104 11.1539 9.99561 11.1539ZM10.0044 3.11584C8.28543 3.11584 6.88786 4.4743 6.87939 6.14709V7.26135H13.1206V6.1637C13.1206 4.48273 11.7232 3.11602 10.0044 3.11584Z" fill="#FDFDFD"/>
</svg>
