<svg width="14" height="14" viewBox="0 0 14 14" fill="none" xmlns="http://www.w3.org/2000/svg">
<path d="M9.33355 7.00008C10.9436 7.00008 12.2502 5.69341 12.2502 4.08341C12.2502 2.47341 10.9436 1.16675 9.33355 1.16675C7.72355 1.16675 6.41688 2.47341 6.41688 4.08341C6.41688 5.69341 7.72355 7.00008 9.33355 7.00008ZM12.5127 10.2667C12.2852 10.0334 11.9994 9.91675 11.6669 9.91675H7.58355L6.37022 9.49091L6.56272 8.94258L7.58355 9.33341H9.21689C9.42105 9.33341 9.58438 9.25175 9.71855 9.11758C9.85272 8.98341 9.91689 8.82008 9.91689 8.63925C9.91689 8.32425 9.76522 8.10841 9.46188 7.98591L5.22105 6.41675H4.08355V11.6667L8.16688 12.8334L12.8511 11.0834C12.8569 10.7742 12.7402 10.5001 12.5127 10.2667ZM2.91689 6.41675H0.574219V12.8334H2.91689V6.41675Z" fill="#FCA91B"/>
</svg>
