<?xml version="1.0" encoding="UTF-8"?>
<svg xmlns="http://www.w3.org/2000/svg" xmlns:xlink="http://www.w3.org/1999/xlink" width="24px" height="24px" viewBox="0 0 24 24" version="1.1">
<defs>
<clipPath id="clip1">
  <path d="M 6.195312 5.632812 L 11.417969 5.632812 L 11.417969 11.226562 L 6.195312 11.226562 Z M 6.195312 5.632812 "/>
</clipPath>
<clipPath id="clip2">
  <path d="M 6.773438 5.632812 L 10.835938 5.632812 C 10.992188 5.632812 11.140625 5.695312 11.25 5.804688 C 11.359375 5.914062 11.417969 6.058594 11.417969 6.210938 L 11.417969 10.625 C 11.417969 10.78125 11.359375 10.929688 11.25 11.039062 C 11.140625 11.144531 10.992188 11.207031 10.835938 11.207031 L 6.773438 11.207031 C 6.617188 11.207031 6.472656 11.144531 6.363281 11.039062 C 6.257812 10.929688 6.195312 10.78125 6.195312 10.625 L 6.195312 6.210938 C 6.195312 6.058594 6.257812 5.914062 6.363281 5.804688 C 6.472656 5.695312 6.617188 5.632812 6.773438 5.632812 Z M 6.773438 5.632812 "/>
</clipPath>
<clipPath id="clip3">
  <path d="M 6.773438 5.632812 L 10.835938 5.632812 C 10.992188 5.632812 11.140625 5.695312 11.25 5.804688 C 11.359375 5.914062 11.417969 6.058594 11.417969 6.210938 L 11.417969 10.625 C 11.417969 10.78125 11.359375 10.929688 11.25 11.039062 C 11.140625 11.144531 10.992188 11.207031 10.835938 11.207031 L 6.773438 11.207031 C 6.617188 11.207031 6.472656 11.144531 6.363281 11.039062 C 6.257812 10.929688 6.195312 10.78125 6.195312 10.625 L 6.195312 6.210938 C 6.195312 6.058594 6.257812 5.914062 6.363281 5.804688 C 6.472656 5.695312 6.617188 5.632812 6.773438 5.632812 Z M 6.773438 5.632812 "/>
</clipPath>
<clipPath id="clip4">
  <path d="M 12.582031 5.632812 L 17.804688 5.632812 L 17.804688 11.226562 L 12.582031 11.226562 Z M 12.582031 5.632812 "/>
</clipPath>
<clipPath id="clip5">
  <path d="M 13.164062 5.632812 L 17.226562 5.632812 C 17.382812 5.632812 17.527344 5.695312 17.636719 5.804688 C 17.742188 5.914062 17.804688 6.058594 17.804688 6.210938 L 17.804688 10.625 C 17.804688 10.78125 17.742188 10.929688 17.636719 11.039062 C 17.527344 11.144531 17.382812 11.207031 17.226562 11.207031 L 13.164062 11.207031 C 13.007812 11.207031 12.859375 11.144531 12.75 11.039062 C 12.640625 10.929688 12.582031 10.78125 12.582031 10.625 L 12.582031 6.210938 C 12.582031 6.058594 12.640625 5.914062 12.75 5.804688 C 12.859375 5.695312 13.007812 5.632812 13.164062 5.632812 Z M 13.164062 5.632812 "/>
</clipPath>
<clipPath id="clip6">
  <path d="M 13.164062 5.632812 L 17.226562 5.632812 C 17.382812 5.632812 17.527344 5.695312 17.636719 5.804688 C 17.742188 5.914062 17.804688 6.058594 17.804688 6.210938 L 17.804688 10.625 C 17.804688 10.78125 17.742188 10.929688 17.636719 11.039062 C 17.527344 11.144531 17.382812 11.207031 17.226562 11.207031 L 13.164062 11.207031 C 13.007812 11.207031 12.859375 11.144531 12.75 11.039062 C 12.640625 10.929688 12.582031 10.78125 12.582031 10.625 L 12.582031 6.210938 C 12.582031 6.058594 12.640625 5.914062 12.75 5.804688 C 12.859375 5.695312 13.007812 5.632812 13.164062 5.632812 Z M 13.164062 5.632812 "/>
</clipPath>
<clipPath id="clip7">
  <path d="M 6.195312 12.019531 L 11.417969 12.019531 L 11.417969 17.601562 L 6.195312 17.601562 Z M 6.195312 12.019531 "/>
</clipPath>
<clipPath id="clip8">
  <path d="M 6.773438 12.019531 L 10.835938 12.019531 C 10.992188 12.019531 11.140625 12.082031 11.25 12.191406 C 11.359375 12.296875 11.417969 12.445312 11.417969 12.601562 L 11.417969 17.011719 C 11.417969 17.164062 11.359375 17.316406 11.25 17.425781 C 11.140625 17.53125 10.992188 17.59375 10.835938 17.59375 L 6.773438 17.59375 C 6.617188 17.59375 6.472656 17.53125 6.363281 17.425781 C 6.257812 17.316406 6.195312 17.164062 6.195312 17.011719 L 6.195312 12.601562 C 6.195312 12.445312 6.257812 12.296875 6.363281 12.191406 C 6.472656 12.082031 6.617188 12.019531 6.773438 12.019531 Z M 6.773438 12.019531 "/>
</clipPath>
<clipPath id="clip9">
  <path d="M 6.773438 12.019531 L 10.835938 12.019531 C 10.992188 12.019531 11.140625 12.082031 11.25 12.191406 C 11.359375 12.296875 11.417969 12.445312 11.417969 12.601562 L 11.417969 17.011719 C 11.417969 17.164062 11.359375 17.316406 11.25 17.425781 C 11.140625 17.53125 10.992188 17.59375 10.835938 17.59375 L 6.773438 17.59375 C 6.617188 17.59375 6.472656 17.53125 6.363281 17.425781 C 6.257812 17.316406 6.195312 17.164062 6.195312 17.011719 L 6.195312 12.601562 C 6.195312 12.445312 6.257812 12.296875 6.363281 12.191406 C 6.472656 12.082031 6.617188 12.019531 6.773438 12.019531 Z M 6.773438 12.019531 "/>
</clipPath>
<clipPath id="clip10">
  <path d="M 12.582031 12.019531 L 17.804688 12.019531 L 17.804688 17.601562 L 12.582031 17.601562 Z M 12.582031 12.019531 "/>
</clipPath>
<clipPath id="clip11">
  <path d="M 13.164062 12.019531 L 17.226562 12.019531 C 17.382812 12.019531 17.527344 12.082031 17.636719 12.191406 C 17.742188 12.296875 17.804688 12.445312 17.804688 12.601562 L 17.804688 17.011719 C 17.804688 17.164062 17.742188 17.316406 17.636719 17.425781 C 17.527344 17.53125 17.382812 17.59375 17.226562 17.59375 L 13.164062 17.59375 C 13.007812 17.59375 12.859375 17.53125 12.75 17.425781 C 12.640625 17.316406 12.582031 17.164062 12.582031 17.011719 L 12.582031 12.601562 C 12.582031 12.445312 12.640625 12.296875 12.75 12.191406 C 12.859375 12.082031 13.007812 12.019531 13.164062 12.019531 Z M 13.164062 12.019531 "/>
</clipPath>
<clipPath id="clip12">
  <path d="M 13.164062 12.019531 L 17.226562 12.019531 C 17.382812 12.019531 17.527344 12.082031 17.636719 12.191406 C 17.742188 12.296875 17.804688 12.445312 17.804688 12.601562 L 17.804688 17.011719 C 17.804688 17.164062 17.742188 17.316406 17.636719 17.425781 C 17.527344 17.53125 17.382812 17.59375 17.226562 17.59375 L 13.164062 17.59375 C 13.007812 17.59375 12.859375 17.53125 12.75 17.425781 C 12.640625 17.316406 12.582031 17.164062 12.582031 17.011719 L 12.582031 12.601562 C 12.582031 12.445312 12.640625 12.296875 12.75 12.191406 C 12.859375 12.082031 13.007812 12.019531 13.164062 12.019531 Z M 13.164062 12.019531 "/>
</clipPath>
</defs>
<g id="surface1">
<path style=" stroke:none;fill-rule:nonzero;fill:rgb(100%,100%,100%);fill-opacity:1;" d="M 14.902344 19.355469 L 17.804688 19.355469 C 18.320312 19.355469 18.8125 19.148438 19.175781 18.789062 C 19.539062 18.425781 19.742188 17.929688 19.742188 17.417969 L 19.742188 14.515625 C 19.742188 14.257812 19.84375 14.011719 20.023438 13.832031 C 20.207031 13.648438 20.453125 13.546875 20.710938 13.546875 C 20.964844 13.546875 21.210938 13.648438 21.394531 13.832031 C 21.574219 14.011719 21.679688 14.257812 21.679688 14.515625 L 21.679688 17.417969 C 21.679688 18.445312 21.269531 19.429688 20.542969 20.15625 C 19.820312 20.882812 18.835938 21.289062 17.804688 21.289062 L 6.195312 21.289062 C 5.164062 21.289062 4.179688 20.882812 3.457031 20.15625 C 2.730469 19.429688 2.320312 18.445312 2.320312 17.417969 L 2.320312 14.515625 C 2.320312 14.257812 2.425781 14.011719 2.605469 13.832031 C 2.789062 13.648438 3.035156 13.546875 3.289062 13.546875 C 3.546875 13.546875 3.792969 13.648438 3.976562 13.832031 C 4.15625 14.011719 4.257812 14.257812 4.257812 14.515625 L 4.257812 17.417969 C 4.257812 17.929688 4.460938 18.425781 4.824219 18.789062 C 5.1875 19.148438 5.679688 19.355469 6.195312 19.355469 L 9.097656 19.355469 C 9.351562 19.355469 9.601562 19.457031 9.78125 19.636719 C 9.960938 19.820312 10.066406 20.066406 10.066406 20.320312 C 10.066406 20.578125 9.960938 20.824219 9.78125 21.007812 C 9.601562 21.1875 9.351562 21.289062 9.097656 21.289062 L 14.902344 21.289062 C 14.648438 21.289062 14.398438 21.1875 14.21875 21.007812 C 14.039062 20.824219 13.933594 20.578125 13.933594 20.320312 C 13.933594 20.066406 14.039062 19.820312 14.21875 19.636719 C 14.398438 19.457031 14.648438 19.355469 14.902344 19.355469 Z M 4.257812 8.710938 C 4.257812 8.964844 4.15625 9.210938 3.976562 9.394531 C 3.792969 9.574219 3.546875 9.679688 3.289062 9.679688 C 3.035156 9.679688 2.789062 9.574219 2.605469 9.394531 C 2.425781 9.210938 2.320312 8.964844 2.320312 8.710938 L 2.320312 5.804688 C 2.320312 4.78125 2.730469 3.792969 3.457031 3.070312 C 4.179688 2.34375 5.164062 1.933594 6.195312 1.933594 L 9.097656 1.933594 C 9.351562 1.933594 9.601562 2.039062 9.78125 2.21875 C 9.960938 2.398438 10.066406 2.648438 10.066406 2.902344 C 10.066406 3.160156 9.960938 3.40625 9.78125 3.585938 C 9.601562 3.769531 9.351562 3.871094 9.097656 3.871094 L 6.195312 3.871094 C 5.679688 3.871094 5.1875 4.074219 4.824219 4.4375 C 4.460938 4.800781 4.257812 5.292969 4.257812 5.804688 Z M 19.742188 8.710938 L 19.742188 5.804688 C 19.742188 5.292969 19.539062 4.800781 19.175781 4.4375 C 18.8125 4.074219 18.320312 3.871094 17.804688 3.871094 L 14.902344 3.871094 C 14.648438 3.871094 14.398438 3.769531 14.21875 3.585938 C 14.039062 3.40625 13.933594 3.160156 13.933594 2.902344 C 13.933594 2.648438 14.039062 2.398438 14.21875 2.21875 C 14.398438 2.039062 14.648438 1.933594 14.902344 1.933594 L 17.804688 1.933594 C 18.835938 1.933594 19.820312 2.34375 20.542969 3.070312 C 21.269531 3.792969 21.679688 4.78125 21.679688 5.804688 L 21.679688 8.710938 C 21.679688 8.964844 21.574219 9.210938 21.394531 9.394531 C 21.210938 9.574219 20.964844 9.679688 20.710938 9.679688 C 20.453125 9.679688 20.207031 9.574219 20.023438 9.394531 C 19.84375 9.210938 19.742188 8.964844 19.742188 8.710938 Z M 19.742188 8.710938 "/>
<g clip-path="url(#clip1)" clip-rule="nonzero">
<g clip-path="url(#clip2)" clip-rule="nonzero">
<g clip-path="url(#clip3)" clip-rule="nonzero">
<path style=" stroke:none;fill-rule:nonzero;fill:rgb(100%,100%,100%);fill-opacity:1;" d="M 6.195312 5.632812 L 11.417969 5.632812 L 11.417969 11.207031 L 6.195312 11.207031 Z M 6.195312 5.632812 "/>
</g>
</g>
</g>
<g clip-path="url(#clip4)" clip-rule="nonzero">
<g clip-path="url(#clip5)" clip-rule="nonzero">
<g clip-path="url(#clip6)" clip-rule="nonzero">
<path style=" stroke:none;fill-rule:nonzero;fill:rgb(100%,100%,100%);fill-opacity:1;" d="M 12.582031 5.632812 L 17.804688 5.632812 L 17.804688 11.207031 L 12.582031 11.207031 Z M 12.582031 5.632812 "/>
</g>
</g>
</g>
<g clip-path="url(#clip7)" clip-rule="nonzero">
<g clip-path="url(#clip8)" clip-rule="nonzero">
<g clip-path="url(#clip9)" clip-rule="nonzero">
<path style=" stroke:none;fill-rule:nonzero;fill:rgb(100%,100%,100%);fill-opacity:1;" d="M 6.195312 12.019531 L 11.417969 12.019531 L 11.417969 17.59375 L 6.195312 17.59375 Z M 6.195312 12.019531 "/>
</g>
</g>
</g>
<g clip-path="url(#clip10)" clip-rule="nonzero">
<g clip-path="url(#clip11)" clip-rule="nonzero">
<g clip-path="url(#clip12)" clip-rule="nonzero">
<path style=" stroke:none;fill-rule:nonzero;fill:rgb(100%,100%,100%);fill-opacity:1;" d="M 12.582031 12.019531 L 17.804688 12.019531 L 17.804688 17.59375 L 12.582031 17.59375 Z M 12.582031 12.019531 "/>
</g>
</g>
</g>
</g>
</svg>
