<svg width="22" height="22" viewBox="0 0 22 22" fill="none" xmlns="http://www.w3.org/2000/svg">
<path d="M10.0835 19.0208C5.15183 19.0208 1.146 15.0149 1.146 10.0833C1.146 5.15159 5.15183 1.14575 10.0835 1.14575C15.0152 1.14575 19.021 5.15159 19.021 10.0833C19.021 15.0149 15.0152 19.0208 10.0835 19.0208ZM10.0835 2.52075C5.91266 2.52075 2.521 5.91242 2.521 10.0833C2.521 14.2541 5.91266 17.6458 10.0835 17.6458C14.2543 17.6458 17.646 14.2541 17.646 10.0833C17.646 5.91242 14.2543 2.52075 10.0835 2.52075Z" fill="#989898"/>
<path d="M18.5806 17C19.4016 17 19.9204 17.3099 20.1353 17.7217C20.3573 18.1475 20.3313 18.7558 19.8794 19.4297L19.8784 19.4316C19.3162 20.2789 18.7635 20.3906 18.48 20.3906C18.4443 20.3906 18.4 20.3866 18.3394 20.3779L18.3325 20.377L18.2144 20.3545C18.085 20.3223 17.9247 20.2562 17.7603 20.124C17.5696 19.9707 17.3504 19.7101 17.1685 19.2598L17.0933 19.0547C16.9075 18.4971 16.9855 17.9813 17.2544 17.6074C17.5215 17.2364 17.9904 17 18.5806 17ZM18.5806 17.375C18.1955 17.375 17.8115 17.501 17.5688 17.8184L17.564 17.8262L17.5581 17.834C17.3254 18.1636 17.3344 18.5817 17.4546 18.9365V18.9375C17.5454 19.2152 17.6625 19.4485 17.7974 19.625C17.9135 19.777 18.1123 19.9769 18.3901 20.0117C18.6636 20.0459 18.9047 19.9058 19.0552 19.792C19.2304 19.6594 19.4056 19.4698 19.5698 19.2314L19.5728 19.2275C19.7325 18.9907 19.8342 18.7622 19.8804 18.5508C19.9187 18.3749 19.9256 18.1764 19.8589 17.9941L19.8257 17.917L19.7788 17.8379C19.6602 17.6621 19.4759 17.5555 19.313 17.4932C19.1109 17.4158 18.8639 17.375 18.5806 17.375Z" fill="#989898" stroke="#989898"/>
</svg>
